<svg xmlns="http://www.w3.org/2000/svg" xmlns:xlink="http://www.w3.org/1999/xlink" version="1.1" id="layer" x="0px" y="0px" style="enable-background:new 0 0 652 652;" xml:space="preserve" viewBox="20 276.8 600 90.4">
<style type="text/css">
	.st0{fill:#7C878E;}
	.st1{fill:#5CE500;}
	.st2{fill:#4B4E52;}
</style>
<path class="st0" d="M614.5,304.4c-3,0-5.5,2.4-5.5,5.5c0,3.3,2.5,5.5,5.5,5.5c3,0,5.5-2.4,5.5-5.5  C620,306.7,617.5,304.4,614.5,304.4z M614.5,314.6c-2.5,0-4.5-1.9-4.5-4.6s1.9-4.6,4.5-4.6c2.5,0,4.5,1.9,4.5,4.6  S617,314.6,614.5,314.6z"/>
<path class="st0" d="M617.2,309.1c0-1.3-0.9-2.1-2.1-2.1h-2.7v5.8h1.6V311h0.4l1.2,1.8h1.8l-1.3-2.1  C616.7,310.6,617.2,310,617.2,309.1L617.2,309.1z M614.8,309.7h-0.9v-1.3h0.9c0.4,0,0.7,0.3,0.7,0.6  C615.5,309.5,615.2,309.7,614.8,309.7z M459.7,298.1H417v3.9h19v48.6h4.3V302h19.3V298.1z M470.7,311.7c-10,0-16.3,8.4-16.3,20.1  c0,11.8,7,19.3,17.7,19.3c4.5,0,8.2-1,11.1-3.3v-4c-3.3,2.7-6.4,3.7-10.6,3.7c-7.8,0-13.8-5.4-13.8-15.6H486v-1.5  C485.7,319.4,480.6,311.7,470.7,311.7z M458.8,328.4c1-8.2,5.8-12.9,12-12.9c7.5,0,10.6,6.1,10.9,12.9H458.8z M492,295h4.3v55.6H492  V295z M519.2,311.7c-10,0-16.3,8.4-16.3,20.1c0,11.8,7,19.3,17.7,19.3c4.5,0,8.2-1,11.1-3.3v-4c-3.3,2.7-6.4,3.7-10.6,3.7  c-7.8,0-13.8-5.4-13.8-15.6h27.3v-1.5C534.3,319.4,529,311.7,519.2,311.7L519.2,311.7z M507.2,328.4c1-8.2,5.8-12.9,12-12.9  c7.5,0,10.6,6.1,10.9,12.9H507.2z M544.6,318.6v-6h-4.3v37.9h4.3V324c1.8-4.8,5.4-8.2,10-8.2c1.3,0,2.5,0.3,3.4,0.7v-4.2  c-0.9-0.3-1.9-0.4-3.3-0.4C550.2,311.7,546.3,314.9,544.6,318.6z M562.8,312.6h4.2v37.9h-4.2V312.6z M565,298.1  c-1.6,0-2.8,1.3-2.8,2.8c0,1.6,1.3,2.8,2.8,2.8c1.5,0,2.8-1.3,2.8-2.8S566.7,298.1,565,298.1z M604.7,312.6h-5.5L580,329.1V295h-4.3  v55.6h4.3v-19.5l19.8,19.5h5.2l-20.7-20.7L604.7,312.6z"/>
<path class="st1" d="M36.8,299.2L20,308.8l26.1,15.1V354l16.8-9.6c0.7-0.4,1.3-1.5,1.3-2.4v-28.6l-24.7-14.2  C38.7,298.7,37.5,298.7,36.8,299.2z"/>
<path class="st1" d="M38.1,349.4v-20.8L20,339L38.1,349.4z M57.5,277.1c-0.7-0.4-1.9-0.4-2.7,0L36,287.9l36.1,20.8v41.8l18.7-10.8  c0.7-0.4,1.3-1.5,1.3-2.4v-40.2L57.5,277.1z"/>
<path class="st2" d="M196.7,310.6c-6.4,0-11.5,2.4-14.7,7c-3.4,4.8-3.9,10.5-3.9,13.5c0,12.4,7.3,20.4,18.7,20.4  c13.8,0,18.7-11.1,18.7-20.7c0-5.5-1.6-10.5-4.6-14.1C207.5,312.6,202.5,310.6,196.7,310.6z M196.7,344.1c-6.3,0-10.3-5.1-10.3-13.2  c0-8.2,3.9-13.3,10.3-13.3c6.3,0,10.3,5.1,10.3,13.2C207,339,203,344.1,196.7,344.1z M132.1,297.2h-19.6v53.3h8.7v-21h11.1  c12,0,18.6-5.8,18.6-16.5C150.7,308.5,148.9,297.2,132.1,297.2z M131,321.8h-9.9v-16.6h11.1c6.4,0,9.6,2.7,9.6,8.2  C141.8,319.4,138.7,321.8,131,321.8z M170.9,310.8c-3.3,0.4-5.8,2.1-7.8,5.2v-4.8h-7.6v39.1h8.1v-16.8c0-7.8,0.6-14.4,8.8-14.4  c0.9,0,1.6,0.1,2.5,0.4l1,0.3l1.5-7.9l-0.6-0.3C175.1,311,173,310.7,170.9,310.8z M388.2,329c-1.9-0.7-6-1.8-9.1-2.5  c-1.5-0.4-2.8-0.7-3.7-1c-3-0.9-4.5-2.1-4.5-3.9c0-3.7,5.2-4.2,7.5-4.2c2.7,0,7.2,0.7,7.9,5.2l0.1,0.6h7.8v-0.7  c-0.6-7.9-6-11.7-16.2-11.7c-7.6,0-15.3,3.6-15.3,11.4c0,4.2,2.8,7.8,7.8,9.4c1.9,0.7,5.2,1.6,8.4,2.5c1.8,0.4,3.6,1,4.9,1.3  c2.4,0.7,3.6,2.1,3.6,3.9c0,3.6-4.3,4.9-8.4,4.9c-3.7,0-8.2-1-9.3-5.8l-0.1-0.6h-7.8l0.1,0.9c0.7,8.1,6.9,12.4,17.1,12.4  c11.5,0,16.8-6.3,16.8-12.6C395.7,334.1,393.1,330.8,388.2,329z M247.3,314.6c-2.5-2.7-6.1-4-10.5-4c-11.8,0-17.2,10.5-17.2,20.2  c0,9.9,5.4,20.1,17.2,20.1c4,0,7.5-1.5,10-4c0,1.8,0,3.4-0.1,4c-0.4,6.4-3.6,9.4-9.7,9.4c-3.4,0-7.3-1.2-8.1-4.6l-0.1-0.7h-7.9  l0.1,1c0.9,6.9,6.9,11.2,15.9,11.2c7.8,0,13.3-3,16.2-8.5c1.3-2.7,1.9-6.6,1.9-11.7v-35.5h-7.6C247.3,311.4,247.3,314.6,247.3,314.6  z M237.4,343.5c-2.8,0-9.4-1.3-9.4-13.2c0-7.8,3.7-12.6,9.6-12.6c4.6,0,9.4,3.3,9.4,12.6C247.2,338.6,243.6,343.5,237.4,343.5z   M350.7,329c-1.9-0.7-6-1.8-9.1-2.5c-1.5-0.4-2.8-0.7-3.7-1c-3-0.9-4.5-2.1-4.5-3.9c0-3.7,5.2-4.2,7.5-4.2c2.7,0,7.2,0.7,7.9,5.2  l0.1,0.6h7.8v-0.7c-0.6-7.9-6-11.7-16.2-11.7c-7.6,0-15.3,3.6-15.3,11.4c0,4.2,2.8,7.8,7.8,9.4c1.9,0.7,5.2,1.6,8.4,2.5  c1.8,0.4,3.6,1,4.9,1.3c2.4,0.7,3.6,2.1,3.6,3.9c0,3.6-4.3,4.9-8.4,4.9c-3.7,0-8.2-1-9.3-5.8l-0.1-0.6h-7.8l0.1,0.9  c0.7,8.1,6.9,12.4,17.1,12.4c11.5,0,16.8-6.3,16.8-12.6C358.4,334.1,355.8,330.8,350.7,329z M320.9,329  c-0.4-10.9-7.5-18.3-17.8-18.3c-6,0-10.9,2.4-14.2,6.7c-2.7,3.6-4.2,8.5-4.2,13.6c0,12.1,7.5,20.2,18.7,20.2  c8.7,0,14.7-4.3,16.8-12.4l0.3-0.9h-8.1l-0.1,0.4c-1.6,4.8-5.7,5.8-8.8,5.8c-6.1,0-10-4-10.5-10.6h27.7l0.1-0.7  c0.1-0.9,0.1-2.2,0.1-3.1C320.9,329.7,320.9,329,320.9,329z M293.3,326.6c0.7-5.4,4.3-8.8,9.7-8.8c4,0,8.8,2.4,9.4,8.8H293.3z   M277.6,310.8c-3.3,0.4-5.8,2.1-7.8,5.2v-4.8h-7.6v39.1h8.1v-16.8c0-7.8,0.6-14.4,8.8-14.4c0.9,0,1.6,0.1,2.5,0.4l1,0.3l1.5-7.9  l-0.6-0.3C281.8,311,279.7,310.7,277.6,310.8z M404.7,309.1c0-1.3-0.9-2.1-2.1-2.1h-2.7v5.8h1.6V311h0.4l1.2,1.8h1.8l-1.3-2.1  C404.2,310.6,404.7,310,404.7,309.1L404.7,309.1z M402.4,309.7h-0.9v-1.3h0.9c0.4,0,0.7,0.3,0.7,0.6  C403.2,309.5,402.9,309.7,402.4,309.7z"/>
<path class="st2" d="M402.1,304.4c-3,0-5.5,2.4-5.5,5.5c0,3.3,2.5,5.5,5.5,5.5s5.5-2.4,5.5-5.5C407.7,306.7,405.1,304.4,402.1,304.4  z M402.1,314.6c-2.5,0-4.5-1.9-4.5-4.6s1.9-4.6,4.5-4.6c2.5,0,4.5,1.9,4.5,4.6S404.5,314.6,402.1,314.6z"/>
</svg>